<svg width="25" height="25" viewBox="0 0 25 25" fill="none" xmlns="http://www.w3.org/2000/svg">
<path d="M21.1657 0C21.0351 0 3.96482 0 3.83431 0C2.49095 0 1.44378 1.19292 1.65516 2.49951C2.11985 5.37197 3.7366 7.9687 6.10789 9.66855C6.64856 11.8117 8.24148 13.5404 10.3027 14.2714V17.6758H8.10545C7.76936 17.6758 7.4764 17.9045 7.3949 18.2306L5.93006 24.0899C5.87537 24.3087 5.92454 24.5406 6.06331 24.7183C6.20213 24.8961 6.41507 25 6.6406 25H18.3594C18.5849 25 18.7978 24.8961 18.9366 24.7183C19.0755 24.5405 19.1246 24.3087 19.0699 24.0899L17.6051 18.2306C17.5236 17.9045 17.2306 17.6758 16.8945 17.6758H14.6972V14.2714C16.7585 13.5404 18.3514 11.8117 18.8921 9.66855C21.2634 7.96865 22.8802 5.37192 23.3449 2.49951C23.5561 1.19395 22.5099 0 21.1657 0ZM5.90818 7.60093C4.42962 6.17861 3.43064 4.3021 3.1012 2.26558C3.03333 1.84609 3.39739 1.46484 3.83431 1.46484H5.90818V7.60093ZM16.3226 19.1406L17.4213 23.5352H7.57864L8.67727 19.1406H16.3226ZM11.7676 17.6758V14.6075C12.0081 14.6342 12.2524 14.6484 12.5 14.6484C12.7475 14.6484 12.9918 14.6342 13.2324 14.6075V17.6758H11.7676ZM17.6269 8.05664C17.6269 10.8836 15.327 13.1836 12.5 13.1836C9.67298 13.1836 7.37303 10.8836 7.37303 8.05664V1.46484H17.6269V8.05664ZM21.8988 2.26558C21.5693 4.30205 20.5704 6.17856 19.0918 7.60088V1.46484H21.1657C21.6034 1.46484 21.9665 1.84702 21.8988 2.26558Z" fill="white"/>
</svg>
