<svg width="25" height="25" viewBox="0 0 25 25" fill="none" xmlns="http://www.w3.org/2000/svg">
<g clip-path="url(#clip0)">
<path d="M12.5571 0C12.5504 0.00669825 12.537 0.00669825 12.5169 0.00669825C5.73824 0.00669825 0.225586 5.51936 0.225586 12.298C0.225586 15.0644 1.17004 17.7504 2.89819 19.9139L1.10975 24.0668C0.962393 24.4084 1.12315 24.8036 1.45806 24.9443C1.57863 24.9979 1.7126 25.0113 1.83986 24.9912L8.39745 23.8391C9.7103 24.3146 11.0901 24.5558 12.4834 24.5491C19.262 24.5491 24.7747 19.0364 24.7747 12.2578C24.7881 5.49926 19.3156 0.00669825 12.5571 0ZM12.4901 23.2161C11.1973 23.2161 9.91795 22.9817 8.70557 22.5262C8.5917 22.4793 8.47113 22.4726 8.35056 22.4927L2.8312 23.4573L4.29142 20.0612C4.3919 19.8268 4.35171 19.5522 4.18425 19.3579C3.39386 18.4403 2.76422 17.3953 2.32214 16.2633C1.82647 14.9974 1.57193 13.651 1.57193 12.2913C1.57193 6.24946 6.48845 1.33965 12.5236 1.33965C18.5453 1.32625 23.435 6.19588 23.4417 12.2176C23.4417 12.231 23.4417 12.2444 23.4417 12.2578C23.4417 18.3063 18.5252 23.2161 12.4901 23.2161Z" fill="white"/>
<path d="M11.9675 9.82633H8.35049C7.98209 9.82633 7.68066 10.1277 7.68066 10.4962C7.68066 10.8646 7.98209 11.166 8.35049 11.166H11.9675C12.3359 11.166 12.6374 10.8646 12.6374 10.4962C12.6374 10.1277 12.3359 9.82633 11.9675 9.82633Z" fill="white"/>
<path d="M16.6563 13.1754H8.35049C7.98209 13.1754 7.68066 13.4769 7.68066 13.8453C7.68066 14.2137 7.98209 14.5151 8.35049 14.5151H16.6563C17.0247 14.5151 17.3261 14.2137 17.3261 13.8453C17.3261 13.4769 17.0247 13.1754 16.6563 13.1754Z" fill="white"/>
</g>
<defs>
<clipPath id="clip0">
<rect width="25" height="25" fill="white"/>
</clipPath>
</defs>
</svg>
