<svg width="25" height="25" viewBox="0 0 25 25" fill="none" xmlns="http://www.w3.org/2000/svg">
<g clip-path="url(#clip0)">
<path d="M12.5571 0C12.5504 0 12.537 0 12.5169 0C5.73824 0 0.225586 5.51266 0.225586 12.2913C0.225586 15.0577 1.17004 17.7437 2.89819 19.9072L1.10975 24.0668C0.962393 24.4084 1.12315 24.8036 1.45806 24.9443C1.57863 24.9979 1.7126 25.0113 1.83986 24.9912L8.39745 23.8391C9.7103 24.3146 11.0901 24.5558 12.4834 24.5491C19.262 24.5491 24.7747 19.0364 24.7747 12.2578C24.7881 5.49926 19.3156 0.00669825 12.5571 0ZM8.35056 9.81963H11.9676C12.336 9.81963 12.6374 10.1211 12.6374 10.4895C12.6374 10.8579 12.336 11.1593 11.9676 11.1593H8.35056C7.98216 11.1593 7.68074 10.8579 7.68074 10.4895C7.68074 10.1211 7.98216 9.81963 8.35056 9.81963ZM16.6564 14.5084H8.35056C7.98216 14.5084 7.68074 14.207 7.68074 13.8386C7.68074 13.4702 7.98216 13.1688 8.35056 13.1688H16.6564C17.0248 13.1688 17.3262 13.4702 17.3262 13.8386C17.3262 14.207 17.0248 14.5084 16.6564 14.5084Z" fill="white"/>
</g>
<defs>
<clipPath id="clip0">
<rect width="25" height="25" fill="white"/>
</clipPath>
</defs>
</svg>
