<svg width="25" height="25" viewBox="0 0 25 25" fill="none" xmlns="http://www.w3.org/2000/svg">
<path d="M12.3213 12.0426C13.9757 12.0426 15.4082 11.4492 16.5789 10.2785C17.7492 9.10795 18.3428 7.67573 18.3428 6.02111C18.3428 4.36706 17.7494 2.93464 16.5787 1.76372C15.408 0.593375 13.9755 0 12.3213 0C10.6667 0 9.23445 0.593375 8.06391 1.76391C6.89337 2.93445 6.2998 4.36687 6.2998 6.02111C6.2998 7.67573 6.89337 9.10814 8.06391 10.2787C9.23483 11.449 10.6673 12.0426 12.3213 12.0426Z" fill="white"/>
<path d="M22.8579 19.2237C22.8241 18.7366 22.7558 18.2052 22.6553 17.6441C22.5538 17.0787 22.4232 16.5443 22.2668 16.0558C22.105 15.551 21.8855 15.0524 21.6137 14.5746C21.332 14.0787 21.0009 13.6469 20.6293 13.2915C20.2408 12.9198 19.7651 12.6209 19.215 12.4029C18.6668 12.186 18.0594 12.0762 17.4095 12.0762C17.1543 12.0762 16.9075 12.1809 16.4309 12.4912C16.1375 12.6825 15.7944 12.9038 15.4114 13.1485C15.0839 13.3571 14.6402 13.5526 14.0923 13.7296C13.5576 13.9026 13.0148 13.9904 12.4788 13.9904C11.9432 13.9904 11.4004 13.9026 10.8654 13.7296C10.318 13.5528 9.87415 13.3573 9.54723 13.1487C9.16786 12.9062 8.82454 12.685 8.5268 12.491C8.05054 12.1807 7.80373 12.076 7.54852 12.076C6.8985 12.076 6.2912 12.186 5.74322 12.4031C5.19352 12.6207 4.71764 12.9196 4.32873 13.2917C3.95718 13.6472 3.62606 14.0789 3.34454 14.5746C3.07312 15.0524 2.85339 15.5508 2.69165 16.056C2.53544 16.5445 2.40479 17.0787 2.30331 17.6441C2.20261 18.2045 2.13451 18.736 2.10075 19.2243C2.06757 19.7017 2.05078 20.1986 2.05078 20.7006C2.05078 22.0056 2.46563 23.0621 3.28369 23.8412C4.09164 24.6101 5.16052 25 6.46076 25H18.4984C19.7983 25 20.8672 24.6101 21.6753 23.8412C22.4936 23.0627 22.9084 22.0058 22.9084 20.7004C22.9082 20.1967 22.8912 19.6998 22.8579 19.2237Z" fill="white"/>
</svg>
