<svg width="25" height="25" viewBox="0 0 25 25" fill="none" xmlns="http://www.w3.org/2000/svg">
<path d="M16.4551 0H8.54492C3.83325 0 0 3.83325 0 8.54492V16.4551C0 21.1667 3.83325 25 8.54492 25H16.4551C21.1667 25 25 21.1667 25 16.4551V8.54492C25 3.83325 21.1667 0 16.4551 0ZM23.5352 16.4551C23.5352 20.359 20.359 23.5352 16.4551 23.5352H8.54492C4.64097 23.5352 1.46484 20.359 1.46484 16.4551V8.54492C1.46484 4.64097 4.64097 1.46484 8.54492 1.46484H16.4551C20.359 1.46484 23.5352 4.64097 23.5352 8.54492V16.4551Z" fill="white"/>
<path d="M16.8185 11.079L10.7638 7.03379C9.62925 6.27578 8.10547 7.09092 8.10547 8.45479V16.5452C8.10547 17.9168 9.63848 18.718 10.7639 17.9662L16.8185 13.921C17.8292 13.2457 17.8321 11.7562 16.8185 11.079ZM16.0047 12.703L9.9501 16.7482C9.78809 16.8564 9.57031 16.7422 9.57031 16.5452V8.45479C9.57031 8.2603 9.78604 8.14214 9.9501 8.25176L16.0047 12.297C16.1497 12.3938 16.1499 12.606 16.0047 12.703Z" fill="white"/>
</svg>
