<svg width="25" height="25" viewBox="0 0 25 25" fill="none" xmlns="http://www.w3.org/2000/svg">
<path d="M16.0048 12.297L9.9501 8.25176C9.78604 8.14214 9.57031 8.25996 9.57031 8.45479V16.5452C9.57031 16.7421 9.78814 16.8563 9.9501 16.7481L16.0047 12.703C16.1499 12.606 16.1498 12.3938 16.0048 12.297Z" fill="white"/>
<path d="M16.4551 0H8.54492C3.83325 0 0 3.83325 0 8.54492V16.4551C0 21.1667 3.83325 25 8.54492 25H16.4551C21.1667 25 25 21.1667 25 16.4551V8.54492C25 3.83325 21.1667 0 16.4551 0ZM16.8185 13.921L10.7638 17.9662C9.63848 18.718 8.10547 17.9168 8.10547 16.5452V8.45479C8.10547 7.09087 9.62925 6.27573 10.7638 7.03374L16.8185 11.079C17.8321 11.7563 17.8292 13.2457 16.8185 13.921Z" fill="white"/>
</svg>
